<?xml version="1.0" encoding="UTF-8" standalone="no"?>
<svg
   width="1024"
   height="1024"
   version="1.1"
   id="svg26"
   sodipodi:docname="logo_bw2-raw.svg"
   inkscape:version="1.1.2 (0a00cf5339, 2022-02-04)"
   xmlns:inkscape="http://www.inkscape.org/namespaces/inkscape"
   xmlns:sodipodi="http://sodipodi.sourceforge.net/DTD/sodipodi-0.dtd"
   xmlns="http://www.w3.org/2000/svg"
   xmlns:svg="http://www.w3.org/2000/svg">
  <defs
     id="defs30" />
  <sodipodi:namedview
     id="namedview28"
     pagecolor="#ffffff"
     bordercolor="#666666"
     borderopacity="1.0"
     inkscape:pageshadow="2"
     inkscape:pageopacity="0.0"
     inkscape:pagecheckerboard="0"
     showgrid="false"
     inkscape:zoom="0.6796875"
     inkscape:cx="512.73563"
     inkscape:cy="511.26437"
     inkscape:window-width="1920"
     inkscape:window-height="1016"
     inkscape:window-x="0"
     inkscape:window-y="0"
     inkscape:window-maximized="1"
     inkscape:current-layer="svg26" />
  <path
     d="M243.817 45.0914C259.572 48.0807 275.433 52.444 290.818 56.9521C307.39 61.8078 323.742 66.9513 339.841 73.2205C384.76 90.7125 428.914 115.5 466.632 145.585C476.711 153.624 486.643 162.149 495.971 171.054C501.648 176.473 506.989 182.222 512.708 187.602C571.086 123.346 652.467 78.4751 735.786 55.9704C750.612 51.9661 765.813 48.1506 781.005 45.8633L781.101 110.355C790.837 108.977 800.64 108.257 810.449 107.633Q809.88 146.681 810.474 185.727C825.666 187.81 840.952 191.976 855.918 195.365C855.943 205.522 855.415 216.008 856.411 226.119C864.484 231.793 871.959 239.354 879.05 246.204C894.346 260.98 909.373 277.394 921.892 294.61C934.94 312.553 945.911 331.602 957.136 350.682L957.256 596.953L957.326 641.82C957.34 648.041 958.296 657.489 956.871 663.374C955.754 667.984 944.56 682.252 941.202 687.036C899.864 745.927 846.303 792.664 784.799 829.647Q776.473 834.511 767.983 839.083Q759.494 843.655 750.851 847.93Q742.207 852.205 733.421 856.178Q724.635 860.15 715.716 863.816Q706.798 867.482 697.757 870.836Q688.717 874.19 679.566 877.228Q670.414 880.267 661.163 882.986Q651.912 885.705 642.572 888.102Q625.887 892.384 609.024 895.903C598.213 898.248 587.259 900.355 576.865 904.217C554.945 912.36 531.794 928.096 520.449 949.099C517.364 954.811 516.052 961.148 513.256 966.91C512.715 968.024 512.579 968.909 511.39 969.324C510.469 968.454 505.376 953.194 503.357 949.663C498.014 940.32 490.927 932.673 482.711 925.785C451.673 899.763 413.339 897.06 375.819 887.03Q371.178 885.798 366.56 884.482Q361.942 883.167 357.348 881.769Q352.754 880.371 348.186 878.891Q343.619 877.41 339.078 875.848Q334.537 874.286 330.025 872.643Q325.513 871 321.032 869.276Q316.55 867.552 312.1 865.748Q307.65 863.944 303.233 862.061Q298.816 860.177 294.434 858.215Q290.051 856.252 285.705 854.212Q281.358 852.171 277.049 850.052Q272.74 847.934 268.469 845.739Q264.199 843.543 259.968 841.272Q255.738 839 251.549 836.653Q247.36 834.306 243.214 831.884Q239.067 829.462 234.965 826.966Q230.863 824.47 226.806 821.901Q222.75 819.332 218.74 816.69Q214.73 814.048 210.768 811.335Q206.806 808.622 202.894 805.839Q198.981 803.055 195.119 800.202Q191.257 797.348 187.447 794.426Q183.637 791.504 179.88 788.514Q176.122 785.523 172.419 782.466Q168.717 779.409 165.069 776.286Q161.422 773.163 157.831 769.975Q154.24 766.787 150.707 763.536Q147.174 760.284 143.7 756.969Q140.225 753.654 136.811 750.278Q133.397 746.901 130.044 743.464Q126.691 740.027 123.4 736.53Q120.11 733.033 116.882 729.478C98.4589 709.478 79.7725 687.513 66.1036 663.924L66.5376 350.132C70.2863 344.406 73.3812 338.127 76.823 332.199C80.9028 325.173 85.3875 318.354 89.9189 311.613C107.831 284.968 128.744 261.687 152.182 239.826C157.557 234.812 163.249 230.135 168.701 225.202L168.705 196.316C183.096 192.44 197.9 189.052 212.529 186.183L212.537 135.006C212.538 125.931 212.279 116.781 212.812 107.726C222.88 107.124 233.423 108.549 243.505 109.151L243.817 45.0914Z"
     id="path4" />
  <path
     fill="white"
     d="M505.941 263.97C509.743 264.092 513.562 264.46 517.358 264.724L517.494 639.484L517.486 713.751C517.485 723.354 518.723 749.977 516.268 757.89C515.056 758.516 513.297 759.496 511.925 759.196C509.151 758.589 507.601 754.956 506.214 752.718C505.321 731.161 506.063 709.239 506.05 687.651L506.061 558.934L505.935 379.378Q505.617 321.672 505.941 263.97Z"
     id="path6" />
  <path
     fill="white"
     d="M256.561 64.2312C264.39 65.6235 272.257 68.0011 279.974 69.9584C350.441 87.8302 421.496 123.31 475.793 171.909Q486.661 181.705 496.2 192.799C501.049 198.47 505.618 204.773 510.949 209.974C511.093 210.114 511.239 210.251 511.384 210.39C524.478 196.289 537.307 181.726 551.724 168.938C611.243 116.145 689.61 81.0525 766.897 64.2931L766.935 82.9242L766.943 111.715Q763.155 112.144 759.374 112.637Q755.594 113.13 751.822 113.686Q748.05 114.242 744.288 114.861Q740.526 115.48 736.775 116.162Q733.024 116.844 729.285 117.588Q725.546 118.333 721.82 119.14Q718.094 119.948 714.382 120.817Q710.67 121.687 706.973 122.618Q703.276 123.55 699.595 124.543Q695.914 125.537 692.25 126.592Q688.587 127.647 684.941 128.763Q681.296 129.879 677.669 131.056Q674.043 132.233 670.437 133.471Q666.831 134.709 663.246 136.007Q659.661 137.305 656.099 138.662Q652.536 140.02 648.997 141.438Q645.458 142.855 641.943 144.331Q638.427 145.808 634.938 147.343Q631.448 148.878 627.984 150.471Q624.521 152.064 621.084 153.715Q617.648 155.367 614.239 157.075Q610.831 158.783 607.452 160.549Q604.073 162.314 600.723 164.136Q597.374 165.957 594.056 167.835Q590.738 169.712 587.451 171.645Q584.165 173.578 580.912 175.566Q577.658 177.553 574.439 179.595Q571.219 181.637 568.034 183.733Q564.849 185.828 561.7 187.977Q558.55 190.125 555.437 192.326Q552.324 194.527 549.248 196.78Q546.173 199.033 543.135 201.337C532.158 209.727 522.158 219.349 511.738 228.41C453.788 170.674 379.19 133.461 299.247 117.595C284.915 114.751 270.549 112.899 256.048 111.211C256.013 95.5625 256.323 79.8785 256.561 64.2312Z"
     id="path10" />
  <path
     fill="white"
     d="M855.19 267.798Q859.191 270.262 862.599 273.495C883.772 293.278 902.023 316.721 917.446 341.184C922.463 349.14 928.919 357.513 929.167 367.239C929.549 382.224 929.128 397.281 929.238 412.277L929.499 557.424L929.471 621.902C929.43 628.946 930.164 645.99 928.342 652.089C925.384 661.987 891.995 701.468 882.95 710.943Q874.341 720.11 865.31 728.861Q856.28 737.613 846.847 745.929Q837.414 754.246 827.6 762.109Q817.786 769.973 807.613 777.365Q803.792 780.134 799.92 782.831Q796.048 785.528 792.126 788.153Q788.205 790.777 784.235 793.328Q780.265 795.878 776.248 798.355Q772.231 800.831 768.169 803.232Q764.107 805.633 760 807.958Q755.894 810.282 751.745 812.53Q747.596 814.778 743.405 816.948Q739.215 819.117 734.985 821.209Q730.755 823.3 726.487 825.312Q722.218 827.324 717.913 829.256Q713.608 831.188 709.268 833.04Q704.927 834.891 700.553 836.661Q696.179 838.432 691.773 840.12Q687.366 841.808 682.929 843.414Q678.492 845.02 674.026 846.542Q669.559 848.065 665.065 849.504Q660.571 850.943 656.051 852.298Q651.531 853.653 646.987 854.924Q642.442 856.194 637.875 857.379Q633.307 858.565 628.718 859.665Q624.13 860.765 619.521 861.779Q614.913 862.793 610.286 863.721Q605.659 864.65 601.016 865.491Q596.373 866.333 591.715 867.088Q587.057 867.843 582.386 868.51Q577.715 869.178 573.032 869.759Q568.349 870.339 563.656 870.832Q558.963 871.325 554.261 871.731Q549.56 872.136 544.852 872.454Q540.144 872.772 535.431 873.001Q530.718 873.231 526.001 873.373Q519.798 873.536 513.593 873.548Q507.389 873.56 501.185 873.42Q494.982 873.281 488.784 872.989Q482.586 872.698 476.397 872.256Q470.208 871.813 464.032 871.22Q457.855 870.626 451.695 869.882Q445.535 869.138 439.395 868.243Q433.255 867.349 427.139 866.305Q421.023 865.261 414.934 864.068Q408.845 862.874 402.787 861.533Q396.729 860.191 390.705 858.702Q384.682 857.213 378.696 855.577Q372.711 853.941 366.768 852.16Q360.824 850.378 354.926 848.452Q349.027 846.526 343.178 844.456Q337.329 842.386 331.531 840.175Q325.734 837.963 319.993 835.61Q314.251 833.257 308.569 830.765Q302.887 828.272 297.267 825.642Q291.648 823.011 286.094 820.245Q280.54 817.478 275.056 814.576Q269.571 811.674 264.159 808.639Q258.747 805.604 253.411 802.438Q248.075 799.272 242.817 795.977Q237.56 792.681 232.385 789.258Q227.209 785.835 222.119 782.287Q217.029 778.739 212.027 775.067Q207.025 771.396 202.115 767.603Q197.204 763.811 192.387 759.899Q187.57 755.988 182.851 751.96Q178.131 747.932 173.511 743.79Q168.891 739.648 164.374 735.394C148.899 720.605 104.117 673.277 96.2084 654.412C95.4139 652.516 95.3912 650.486 95.3471 648.465C94.0791 590.359 95.468 532.089 95.2873 473.958Q94.7908 430.091 95.059 386.222C95.1058 380.511 94.3078 366.453 95.8019 361.48C97.5603 355.629 101.67 349.955 104.872 344.801C118.028 323.624 132.543 303.367 149.805 285.33C155.709 279.144 162.146 273.771 168.722 268.327L168.94 284.557Q162.621 290.613 156.66 297.022Q150.7 303.431 145.117 310.172Q139.535 316.914 134.349 323.965Q129.164 331.016 124.392 338.353C118.795 346.894 113.928 355.891 108.222 364.358C107.436 392.163 108.252 420.197 108.239 448.028L108.192 651.099C112.321 658.259 117.601 664.838 122.553 671.44C156.075 716.137 203.403 756.521 250.541 786.111Q255.598 789.307 260.732 792.379Q265.866 795.451 271.074 798.395Q276.281 801.34 281.56 804.156Q286.838 806.973 292.184 809.659Q297.53 812.345 302.94 814.899Q308.35 817.453 313.821 819.874Q319.291 822.295 324.82 824.581Q330.349 826.867 335.932 829.017Q341.515 831.167 347.149 833.18Q352.783 835.192 358.464 837.066Q364.146 838.94 369.872 840.674Q375.598 842.408 381.364 844.001Q387.131 845.594 392.935 847.045Q398.739 848.497 404.577 849.805Q410.414 851.114 416.283 852.279Q422.151 853.444 428.046 854.465Q433.94 855.486 439.859 856.363Q445.777 857.239 451.714 857.97Q457.652 858.701 463.606 859.286Q469.56 859.871 475.527 860.31Q481.493 860.75 487.469 861.042Q493.444 861.335 499.425 861.481Q505.406 861.628 511.389 861.627Q517.371 861.627 523.352 861.48Q529.333 861.333 535.308 861.039Q541.284 860.746 547.25 860.306Q553.217 859.866 559.171 859.28Q565.124 858.694 571.062 857.962Q577 857.231 582.918 856.354Q588.836 855.477 594.731 854.455Q600.625 853.433 606.493 852.267Q612.361 851.101 618.199 849.792Q632.843 846.493 647.261 842.32Q661.68 838.146 675.822 833.113Q689.964 828.081 703.778 822.207Q717.591 816.333 731.027 809.639C793.914 778.025 858.613 725.779 901.375 669.777C906.546 663.005 911.94 656.26 916.47 649.04L916.397 454.54L916.377 397.078C916.381 387.718 917.156 377.746 916.215 368.473C915.534 361.755 910.379 355.263 906.861 349.637C893.311 327.963 874.806 301.755 855.232 285.331C855.058 279.503 855.192 273.631 855.19 267.798Z"
     id="path12" />
  <path
     fill="white"
     d="M211.064 198.604C212.027 198.641 211.549 198.49 212.435 199.221C212.807 212.767 212.533 226.376 212.52 239.931L212.5 314.17L212.578 582.339C268.297 584.747 341.795 607.337 388.103 638.863C448.611 680.057 492.749 742.555 506.51 814.949C503.089 808.33 499.594 801.826 495.744 795.444Q487.953 782.875 478.495 771.507Q469.95 761.18 460.462 751.711Q450.973 742.243 440.628 733.72C386.683 690.109 312.046 665.657 244.4 654.087Q213.172 648.97 181.633 646.394C181.059 630.048 181.759 613.592 181.726 597.234L181.576 491.49L181.357 205.095C191.201 202.726 201.169 200.764 211.064 198.604Z"
     id="path14" />
  <path
     fill="white"
     d="M810.469 198.3C820.658 199.209 833.514 203.078 843.926 205.141C844.25 222.836 843.948 240.58 843.995 258.28L844.115 378.445L843.989 651.309C810.285 650.357 775.207 655.148 742.375 662.535C676.932 677.257 598.062 712.008 551.959 761.759C543.654 770.72 536.648 780.58 530.124 790.882C525.376 798.833 521.378 806.884 517.508 815.292C528.103 765.468 544.237 728.389 577.823 689.53C625.862 633.95 693.695 603.423 764.743 589.353C779.732 586.384 795.187 583.491 810.436 582.362C811.123 536.023 810.522 489.596 810.501 443.247L810.469 198.3Z"
     id="path16" />
  <path
     fill="white"
     d="M855.494 296.247C858.267 298.022 860.762 301.141 863.01 303.567C880.549 322.498 894.793 344.837 908.48 366.636L908.658 559.584C908.747 587.972 907.671 616.668 908.852 645.013C903.329 654.386 896.194 663.259 889.392 671.727C858.914 709.662 819.574 744.989 779.049 771.917C718.103 812.414 641.383 842.608 568.424 850.482C552.82 853.065 533.378 854.138 517.454 854.222C526.98 822.687 542.458 791.908 566.102 768.689C589.883 745.334 617.513 727.746 647.16 712.779Q653.16 709.677 659.253 706.762Q665.347 703.847 671.527 701.122Q677.708 698.397 683.969 695.864Q690.231 693.331 696.568 690.992Q702.905 688.654 709.311 686.513Q715.717 684.371 722.187 682.429Q728.656 680.486 735.182 678.745Q741.708 677.003 748.285 675.464Q754.862 673.925 761.484 672.59Q768.105 671.255 774.765 670.125Q781.424 668.996 788.115 668.072Q794.807 667.149 801.523 666.432Q808.24 665.716 814.975 665.208Q821.71 664.699 828.458 664.399Q835.206 664.099 841.96 664.008Q848.714 663.917 855.468 664.034C855.944 632.2 855.484 600.305 855.538 568.463L855.494 296.247Z"
     id="path22" />
  <path
     fill="white"
     d="M168.682 296.392C169.964 303.315 169.064 319.819 169.072 327.433L168.937 405.814L169.177 660.194C243.76 663.196 325.614 683.503 391.655 718.516C445.34 746.98 489.921 795.577 507.997 854.189C491.398 854.062 474.886 852.435 458.379 850.806C443.125 849.257 428.159 846.381 413.145 843.327Q408.543 842.345 403.961 841.276Q399.378 840.207 394.817 839.051Q390.256 837.894 385.718 836.65Q381.18 835.407 376.667 834.077Q372.153 832.747 367.666 831.331Q363.178 829.915 358.719 828.414Q354.26 826.912 349.83 825.326Q345.4 823.74 341.001 822.069Q336.602 820.398 332.236 818.644Q327.87 816.89 323.538 815.052Q319.206 813.215 314.91 811.295Q310.615 809.375 306.356 807.373Q302.098 805.372 297.878 803.289Q293.659 801.206 289.48 799.044Q285.301 796.881 281.164 794.638Q277.028 792.396 272.934 790.075Q268.841 787.754 264.793 785.356Q260.745 782.957 256.743 780.482Q252.742 778.006 248.788 775.454Q244.835 772.903 240.931 770.276Q237.027 767.65 233.173 764.949Q229.32 762.248 225.519 759.474Q221.719 756.701 217.971 753.855Q214.224 751.009 210.532 748.092Q206.84 745.175 203.204 742.188Q199.568 739.201 195.99 736.145Q192.412 733.089 188.893 729.965Q185.374 726.841 181.916 723.651Q178.457 720.461 175.06 717.205Q171.663 713.949 168.329 710.629Q164.994 707.309 161.724 703.925Q158.454 700.542 155.249 697.097C141.073 681.782 127.616 665.751 116.089 648.332C116.744 638.124 116.459 627.829 116.443 617.603L116.355 568.589L116.381 423.748C116.362 414.609 115.062 372.018 116.967 366.301C118.523 361.629 121.817 356.991 124.368 352.814C137.098 331.967 151.833 314.055 168.682 296.392Z"
     id="path24" />
</svg>
